<svg xmlns="http://www.w3.org/2000/svg" viewBox="0 0 900 900">
  <defs>
    <linearGradient id="g1-bg" x1="0%" y1="0%" x2="100%" y2="100%">
      <stop offset="0%" stop-color="#0b162d"/>
      <stop offset="55%" stop-color="#1a2744"/>
      <stop offset="100%" stop-color="#090d1c"/>
    </linearGradient>
    <linearGradient id="g1-accent" x1="0%" y1="0%" x2="100%" y2="100%">
      <stop offset="0%" stop-color="#4cf0ff"/>
      <stop offset="60%" stop-color="#7a5bff"/>
      <stop offset="100%" stop-color="#1f2bff"/>
    </linearGradient>
  </defs>
  <rect width="900" height="900" fill="url(#g1-bg)"/>
  <path d="M120 660h90l90-140h320l80 140h70a56 56 0 0 1 56 56v64H64v-64a56 56 0 0 1 56-56Z"
        fill="#080c1b" stroke="url(#g1-accent)" stroke-width="14" stroke-linejoin="round"/>
  <circle cx="300" cy="740" r="70" fill="#0b1122" stroke="url(#g1-accent)" stroke-width="14"/>
  <circle cx="600" cy="740" r="70" fill="#0b1122" stroke="url(#g1-accent)" stroke-width="14"/>
  <circle cx="210" cy="220" r="34" fill="rgba(76,240,255,0.25)"/>
  <circle cx="720" cy="200" r="24" fill="rgba(124,149,255,0.25)"/>
  <path d="M200 260c40-54 96-90 156-104 84-20 178 2 250 60" fill="none" stroke="rgba(76,240,255,0.22)" stroke-width="16" stroke-linecap="round"/>
  <text x="60" y="160" fill="rgba(255,255,255,0.35)" font-family="Inter, sans-serif" font-size="34" font-weight="600" letter-spacing="0.24em">
    GALLERY 01 PLACEHOLDER
  </text>
  <text x="60" y="208" fill="rgba(255,255,255,0.22)" font-family="Inter, sans-serif" font-size="24" letter-spacing="0.18em">
    Substitua por gallery-1.jpg
  </text>
</svg>
