<svg xmlns="http://www.w3.org/2000/svg" viewBox="0 0 1200 900">
  <defs>
    <linearGradient id="heroGradient" x1="0%" y1="0%" x2="100%" y2="100%">
      <stop offset="0%" stop-color="#081127"/>
      <stop offset="45%" stop-color="#13254b"/>
      <stop offset="100%" stop-color="#070b19"/>
    </linearGradient>
    <linearGradient id="heroAccent" x1="0%" y1="0%" x2="100%" y2="100%">
      <stop offset="0%" stop-color="#4cf0ff"/>
      <stop offset="55%" stop-color="#7e5cff"/>
      <stop offset="100%" stop-color="#1f2bff"/>
    </linearGradient>
  </defs>
  <rect width="1200" height="900" fill="url(#heroGradient)"/>
  <circle cx="250" cy="220" r="40" fill="rgba(124,149,255,0.25)"/>
  <circle cx="980" cy="180" r="34" fill="rgba(76,240,255,0.25)"/>
  <path d="M140 660h120l118-160h420l100 160h80a64 64 0 0 1 64 64v76H76v-76a64 64 0 0 1 64-64Z"
        fill="rgba(6,10,24,0.88)" stroke="url(#heroAccent)" stroke-width="18" stroke-linejoin="round"/>
  <ellipse cx="360" cy="760" rx="96" ry="96" fill="#090d1c" stroke="url(#heroAccent)" stroke-width="18"/>
  <ellipse cx="840" cy="760" rx="96" ry="96" fill="#090d1c" stroke="url(#heroAccent)" stroke-width="18"/>
  <path d="M720 360c110 0 200 90 200 200" fill="none" stroke="rgba(124,149,255,0.45)" stroke-width="26" stroke-linecap="round"/>
  <path d="M620 320c150 0 270 120 270 270" fill="none" stroke="rgba(76,240,255,0.35)" stroke-width="20" stroke-linecap="round"/>
  <path d="M260 290c50-66 120-110 198-128 110-26 234 2 326 74" fill="none" stroke="rgba(76,240,255,0.22)" stroke-width="20" stroke-linecap="round"/>
  <path d="M450 470h300" stroke="rgba(255,255,255,0.15)" stroke-width="20" stroke-linecap="round"/>
  <text x="80" y="180" fill="rgba(255,255,255,0.35)" font-family="Inter, sans-serif" font-size="42" font-weight="600" letter-spacing="0.28em">
    NOVAFROTA PLACEHOLDER
  </text>
  <text x="80" y="240" fill="rgba(255,255,255,0.22)" font-family="Inter, sans-serif" font-size="28" letter-spacing="0.18em">
    Substitua por hero.jpg
  </text>
</svg>
